<svg xmlns="http://www.w3.org/2000/svg" width="129.175" height="33.698" viewBox="0 0 129.175 33.698">
    <path data-name="Path 11" d="M609.38 368.061a15.165 15.165 0 0 0 1.948-1.55 20.057 20.057 0 0 0 1.541-1.625H610.5V349.68h-3.43v18.6h1.963c.117-.072.235-.142.347-.219z" transform="translate(-539.568 -341.331)" style="fill:#ed7203"/>
    <path data-name="Path 12" d="M956.78 349.566c.058 0 .112-.013.164-.013 2.348.006 4.7-.044 7.043.035a8.809 8.809 0 0 1 6.081 2.474 7.721 7.721 0 0 1 2.167 4.04 11.378 11.378 0 0 1-.443 6.4 8.111 8.111 0 0 1-4.731 4.8 10.536 10.536 0 0 1-3.842.826c-2.128.042-4.257.03-6.385.042a.371.371 0 0 1-.055-.013zm3.45 3.413v11.778c.848 0 1.688.022 2.515 0a9.051 9.051 0 0 0 2.418-.39 4.947 4.947 0 0 0 3.565-3.666 8.453 8.453 0 0 0 .145-3.437 4.825 4.825 0 0 0-1.173-2.564 5.239 5.239 0 0 0-3.1-1.58 26.649 26.649 0 0 0-4.319-.148c-.015-.016-.026-.007-.051.006z" transform="translate(-843.865 -341.212)" style="fill:#ed7203"/>
    <path data-name="Path 13" d="M378.878 290.181a5.407 5.407 0 0 1 2.48-4.092 2.368 2.368 0 0 1 2.727-.2 2.436 2.436 0 0 1 1.187 2.545 19.613 19.613 0 0 1-.883 2.872c-.073.229-.247.46-.23.678.143 1.762-1.638 2.715-3.258 2.04-1.25-.524-2.038-1.874-2.023-3.843z" transform="translate(-341.008 -285.523)" style="fill:#004f9e"/>
    <path data-name="Path 14" d="M98.341 309.952a21.049 21.049 0 0 0 7.3-1.222l.26.6a15.551 15.551 0 0 0 3.636 5.494 10.2 10.2 0 0 0 2.657 1.792 2.847 2.847 0 0 0 1.175.268 2.317 2.317 0 0 0 2.222-1.651 5.792 5.792 0 0 0 .274-1.593 13.975 13.975 0 0 0-1.136-5.88q-3.423-8.524-7.024-16.992a14 14 0 0 0-2.078-3.479 4.825 4.825 0 0 0-3.727-1.748 5 5 0 0 0-3.7 1.639 10.283 10.283 0 0 0-1.66 2.387 207.312 207.312 0 0 0-8.34 19.554 17.506 17.506 0 0 0-.93 3.854A1.838 1.838 0 0 0 89.308 315a1.922 1.922 0 0 0 .243-.01 2.2 2.2 0 0 0 1.827-1.36c.613-1.2 1.143-2.431 1.678-3.659.114-.26.226-.39.5-.39a1.311 1.311 0 0 1 .177.014 32.57 32.57 0 0 0 4.607.355zm1.9-16.389 4.009 11.666a12.779 12.779 0 0 0-4.393-.7 34.068 34.068 0 0 0-4.653.41c1.696-3.839 3.337-7.533 5.039-11.376z" transform="translate(-87.255 -285.52)" style="fill:#004f9e"/>
    <path data-name="Path 15" d="M305.387 307.048a489.457 489.457 0 0 0-.152-6.328h-.019c-.107-3.766-.191-7.532-.335-11.3a10.453 10.453 0 0 0-.44-2.395 2.1 2.1 0 0 0-2.005-1.625 4.132 4.132 0 0 0-.312-.013 2.394 2.394 0 0 0-2.319 1.326 7.207 7.207 0 0 0-.693 2.23c-.378 3.34-.756 6.682-.98 10.033a55.835 55.835 0 0 0-.13 6.233q.427 1.056.844 2.1a14.929 14.929 0 0 1 1.2 5.82c.064.083.13.166.2.249a6.591 6.591 0 0 0 1.948 1.622 2.3 2.3 0 0 0 1.049.26 2.024 2.024 0 0 0 1.936-1.465 4.488 4.488 0 0 0 .244-1.374c-.005-1.789-.023-3.577-.036-5.373z" transform="translate(-270.603 -285.39)" style="fill:#004f9e"/>
    <path data-name="Path 16" d="M372.033 391.235q.442-.39.847-.813a14.987 14.987 0 0 0 1.417-1.738 14.155 14.155 0 0 0 1.14-1.913l.009-.017a3.622 3.622 0 0 0 .49-2.131 1.114 1.114 0 0 0-.5-.771 1.085 1.085 0 0 0-.888-.014 9.113 9.113 0 0 0-2.017 1.095c-.66.43-1.322.9-2.014 1.339-.174.109-.348.217-.527.321a1.733 1.733 0 0 1-.765.291.954.954 0 0 1-.6-.161 1.063 1.063 0 0 1-.145-.13 1.221 1.221 0 0 1-.37-.609 5.455 5.455 0 0 1-.268-1.721c.056-1.458.251-2.913.3-4.371a21.763 21.763 0 0 0-.109-3.68 2 2 0 0 0-2.033-1.65 3.35 3.35 0 0 0-2.791 1.387 10.765 10.765 0 0 0-2.278 4.615 11.794 11.794 0 0 0 .625 8.425 6.488 6.488 0 0 0 7.824 3.556 9.373 9.373 0 0 0 2.653-1.31z" transform="translate(-324.968 -362.977)" style="fill:#004f9e"/>
    <path data-name="Path 17" d="M467.515 378.143a1.309 1.309 0 0 0-1.518.174 16.6 16.6 0 0 0-1.132 1.241c-.673.755-1.3 1.558-2.026 2.253a7.623 7.623 0 0 1-3.567 2.088 1.65 1.65 0 0 1-2.1-1.013 12.524 12.524 0 0 1-.612-1.78 41.888 41.888 0 0 0-1.219-4.341c-1.291-3.18-4.244-3.919-6.855-1.713a23.738 23.738 0 0 0-2.78 3.1 23.274 23.274 0 0 0-1.306 1.948 13.246 13.246 0 0 0-.107-1.614 31.606 31.606 0 0 0-.89-3.987 2.688 2.688 0 0 0-4.928-.148 10.628 10.628 0 0 0-.37 1.095 33.859 33.859 0 0 0-.706 8.242c.54-.317 1.079-.649 1.63-.975.349-.206.7-.412 1.074-.6a6.033 6.033 0 0 1 1.191-.477 2.418 2.418 0 0 1 .7-.083 1.4 1.4 0 0 1 .738.24 1.739 1.739 0 0 1 .723 1.215 3.089 3.089 0 0 1-.148 1.306 5.422 5.422 0 0 1-.519 1.153l.009-.017a14.53 14.53 0 0 1-1.276 1.915 15.411 15.411 0 0 1-1.535 1.7 12.769 12.769 0 0 1-1.2 1 2.85 2.85 0 0 0 4.6.26 13.942 13.942 0 0 0 1.671-2.195c1.27-1.965 2.491-3.961 3.733-5.942.109-.173.232-.336.3-.436a40.647 40.647 0 0 0 1.575 3.822c2.106 3.948 6.179 5.235 10.091 3.172a15.793 15.793 0 0 0 7.19-8.207 3.785 3.785 0 0 0 .232-1.114 1.188 1.188 0 0 0-.663-1.282z" transform="translate(-391.907 -361.459)" style="fill:#004f9e"/>
    <path data-name="Path 18" d="M690.813 363.737a.26.26 0 0 1 .286-.19h7.921a.271.271 0 0 1 .294.2q.288.674.582 1.343c.677-.013 1.354-.022 2.035-.023.557 0 1.11.012 1.664.019l-8.311-17.211c-.034-.071-.122-.169-.177-.169a.326.326 0 0 0-.206.169q-4.43 9.169-8.85 18.341 1.925-.287 3.9-.5.439-.987.862-1.979zm4.252-9.659 2.765 6.315h-5.53c.918-2.093 1.831-4.184 2.765-6.315z" transform="translate(-608.291 -339.617)" style="fill:#ed7203"/>
    <path data-name="Path 19" d="m639.482 469.647.252-.519 1.127-2.337h-4.916a20.58 20.58 0 0 1-1.515 2 14.824 14.824 0 0 1-1.36 1.395h4.722q.8-.136 1.6-.26a1.015 1.015 0 0 1 .09-.279z" transform="translate(-562.192 -443.234)" style="fill:#ed7203"/>
    <path data-name="Path 20" d="M828.706 354.662c.058.049.088.073.117.1q1.963 1.818 3.926 3.648l8.375 7.791.347.056.153.029V347.6h-3.443v11.55l-.892-.83-7.388-6.864q-2.153-2-4.311-4.01a1.347 1.347 0 0 0-.33-.161v17.442q1.736.037 3.446.13z" transform="translate(-729.424 -339.243)" style="fill:#ed7203"/>
    <path data-name="Path 21" d="M605.884 498.741c-.734-.192-1.449-.427-2.183-.605s-1.452-.39-2.187-.551l-1.1-.26-1.1-.234c-.731-.165-1.469-.3-2.208-.442-2.944-.557-5.9-.991-8.873-1.326a163.892 163.892 0 0 0-35.764 0c-2.969.335-5.928.769-8.872 1.325-.735.139-1.473.277-2.208.441l-1.1.242-1.1.26c-.735.161-1.458.36-2.188.551s-1.448.412-2.183.6q.51-.249 1.025-.49c.343-.162.686-.325 1.039-.47.7-.293 1.4-.592 2.108-.854.355-.13.709-.274 1.066-.4l1.078-.368c.717-.26 1.445-.466 2.171-.69a79.58 79.58 0 0 1 8.881-2.078 108.316 108.316 0 0 1 36.325 0 79.775 79.775 0 0 1 8.88 2.078c.727.223 1.456.436 2.172.69l1.078.368c.357.13.712.269 1.066.4.71.26 1.41.561 2.108.854.349.145.693.308 1.039.47s.687.323 1.03.489z" transform="translate(-476.709 -465.048)" style="fill:#ed7203"/>
</svg>
