<svg xmlns="http://www.w3.org/2000/svg" width="129.175" height="32.656" viewBox="0 0 129.175 32.656">
    <g data-name="alinshops logo">
        <path data-name="Path 22" d="M630.175 356.1a.654.654 0 0 1-.535.316.96.96 0 0 1-.515-.182q-.28-.184-.674-.414a4.775 4.775 0 0 0-.969-.413 4.484 4.484 0 0 0-1.35-.183 3.128 3.128 0 0 0-2.254.706 2.319 2.319 0 0 0-.725 1.726 1.691 1.691 0 0 0 .6 1.375 4.984 4.984 0 0 0 1.48.822q.89.328 1.922.621a9.334 9.334 0 0 1 1.923.773 4.622 4.622 0 0 1 1.489 1.278 3.4 3.4 0 0 1 .6 2.1 5.168 5.168 0 0 1-.386 2 4.482 4.482 0 0 1-1.119 1.605 5.175 5.175 0 0 1-1.8 1.059 7.143 7.143 0 0 1-2.406.376 7.841 7.841 0 0 1-3.018-.571 7.28 7.28 0 0 1-2.349-1.511l.74-1.071a.634.634 0 0 1 .56-.316.984.984 0 0 1 .572.243c.213.162.475.344.79.548a5.67 5.67 0 0 0 1.146.547 4.866 4.866 0 0 0 1.643.242 3.613 3.613 0 0 0 2.406-.742 2.544 2.544 0 0 0 .879-2.055 1.891 1.891 0 0 0-.344-1.18 2.813 2.813 0 0 0-.9-.755 6.955 6.955 0 0 0-1.288-.523c-.483-.146-.973-.3-1.465-.45s-.98-.328-1.463-.523a4.5 4.5 0 0 1-1.288-.773 3.645 3.645 0 0 1-.9-1.217 4.222 4.222 0 0 1-.343-1.8 3.96 3.96 0 0 1 .354-1.639 4.407 4.407 0 0 1 1.012-1.419 5 5 0 0 1 1.643-1 6.255 6.255 0 0 1 2.254-.377 7.759 7.759 0 0 1 2.636.425 6.218 6.218 0 0 1 2.075 1.229z" transform="translate(-551.449 -344.571)" style="fill:#ed7203"/>
        <path data-name="Path 23" d="M622.433 367.71a8.221 8.221 0 0 1-3.15-.6 7.649 7.649 0 0 1-2.466-1.592l-.207-.2.9-1.31a.97.97 0 0 1 .844-.465 1.3 1.3 0 0 1 .783.314c.2.156.463.335.773.531a5.28 5.28 0 0 0 1.077.515 4.539 4.539 0 0 0 1.525.223 3.329 3.329 0 0 0 2.19-.66 2.165 2.165 0 0 0 .756-1.792 1.57 1.57 0 0 0-.273-.971 2.464 2.464 0 0 0-.794-.66 6.5 6.5 0 0 0-1.221-.5q-.728-.22-1.469-.451c-.5-.156-1-.335-1.489-.533a4.844 4.844 0 0 1-1.385-.837 4.005 4.005 0 0 1-.989-1.329 4.571 4.571 0 0 1-.376-1.948 4.321 4.321 0 0 1 .386-1.784 4.781 4.781 0 0 1 1.1-1.521 5.35 5.35 0 0 1 1.755-1.067 6.626 6.626 0 0 1 2.378-.4 8.162 8.162 0 0 1 2.753.446 6.57 6.57 0 0 1 2.19 1.3l.207.186-.795 1.395a.987.987 0 0 1-.814.459 1.288 1.288 0 0 1-.7-.238c-.18-.117-.4-.258-.661-.4a4.54 4.54 0 0 0-.9-.386 4.177 4.177 0 0 0-1.257-.166 2.826 2.826 0 0 0-2.013.608 1.963 1.963 0 0 0-.63 1.487 1.349 1.349 0 0 0 .474 1.109 4.676 4.676 0 0 0 1.387.773c.584.215 1.223.421 1.9.612a9.7 9.7 0 0 1 1.994.808 4.989 4.989 0 0 1 1.6 1.372 3.751 3.751 0 0 1 .669 2.312 5.539 5.539 0 0 1-.408 2.127 4.85 4.85 0 0 1-1.206 1.727 5.526 5.526 0 0 1-1.913 1.13 7.5 7.5 0 0 1-2.525.376zm-4.921-2.486a7.054 7.054 0 0 0 2.034 1.251 7.539 7.539 0 0 0 2.887.546 6.828 6.828 0 0 0 2.29-.358 4.847 4.847 0 0 0 1.675-.987 4.172 4.172 0 0 0 1.031-1.483 4.861 4.861 0 0 0 .356-1.864 3.091 3.091 0 0 0-.528-1.9 4.318 4.318 0 0 0-1.381-1.183 8.973 8.973 0 0 0-1.851-.748 28.93 28.93 0 0 1-1.948-.629 5.353 5.353 0 0 1-1.591-.886 2.03 2.03 0 0 1-.723-1.64 2.659 2.659 0 0 1 .83-1.974 3.468 3.468 0 0 1 2.5-.8 4.894 4.894 0 0 1 1.467.2 5.224 5.224 0 0 1 1.031.444c.267.157.5.3.689.423a.62.62 0 0 0 .321.129c.035 0 .129 0 .245-.16l.486-.853a5.945 5.945 0 0 0-1.752-.982 7.472 7.472 0 0 0-2.5-.41 5.924 5.924 0 0 0-2.131.354 4.689 4.689 0 0 0-1.53.934 4.072 4.072 0 0 0-.939 1.3 3.625 3.625 0 0 0-.327 1.5 3.89 3.89 0 0 0 .312 1.653 3.289 3.289 0 0 0 .818 1.1 4.15 4.15 0 0 0 1.189.719c.473.191.957.363 1.438.515s.979.3 1.461.45a7.172 7.172 0 0 1 1.351.55 3.151 3.151 0 0 1 1.014.848 2.234 2.234 0 0 1 .415 1.39 2.883 2.883 0 0 1-1 2.319 3.918 3.918 0 0 1-2.629.823 5.219 5.219 0 0 1-1.76-.264 5.944 5.944 0 0 1-1.216-.581c-.321-.207-.594-.4-.813-.564a.652.652 0 0 0-.363-.171.291.291 0 0 0-.269.157z" transform="translate(-548.417 -342.264)" style="fill:#ed7203"/>
        <path data-name="Path 24" d="M988.24 361.119a.644.644 0 0 1-.531.316.949.949 0 0 1-.506-.182q-.278-.182-.671-.412a4.766 4.766 0 0 0-.961-.412 4.479 4.479 0 0 0-1.354-.182 3.1 3.1 0 0 0-2.239.7 2.3 2.3 0 0 0-.721 1.72 1.688 1.688 0 0 0 .594 1.369 5 5 0 0 0 1.481.824q.885.327 1.91.617a9.319 9.319 0 0 1 1.91.773 4.616 4.616 0 0 1 1.48 1.273 3.41 3.41 0 0 1 .594 2.1 5.177 5.177 0 0 1-.379 1.988 4.493 4.493 0 0 1-1.113 1.6 5.143 5.143 0 0 1-1.784 1.054 7.1 7.1 0 0 1-2.392.375 7.766 7.766 0 0 1-3-.569 7.2 7.2 0 0 1-2.341-1.514l.733-1.067a.632.632 0 0 1 .557-.316.98.98 0 0 1 .569.242q.317.243.785.546a5.59 5.59 0 0 0 1.139.545 4.845 4.845 0 0 0 1.632.242 3.586 3.586 0 0 0 2.392-.739 2.534 2.534 0 0 0 .872-2.047 1.889 1.889 0 0 0-.341-1.176 2.784 2.784 0 0 0-.9-.751 6.771 6.771 0 0 0-1.278-.515q-.722-.218-1.456-.448t-1.454-.522a4.463 4.463 0 0 1-1.278-.773 3.636 3.636 0 0 1-.9-1.211 4.228 4.228 0 0 1-.341-1.794 3.95 3.95 0 0 1 .354-1.635 4.37 4.37 0 0 1 1.017-1.4 4.96 4.96 0 0 1 1.632-.994 6.2 6.2 0 0 1 2.239-.375 7.7 7.7 0 0 1 2.62.424 6.145 6.145 0 0 1 2.061 1.224z" transform="translate(-863.444 -348.962)" style="fill:#ed7203"/>
        <path data-name="Path 25" d="M981.291 373.093a8.072 8.072 0 0 1-3.092-.589 7.494 7.494 0 0 1-2.426-1.564l-.153-.151.855-1.242a.88.88 0 0 1 .773-.426 1.205 1.205 0 0 1 .724.3c.208.158.465.337.773.533a5.352 5.352 0 0 0 1.087.515 4.594 4.594 0 0 0 1.546.227 3.356 3.356 0 0 0 2.227-.679 2.265 2.265 0 0 0 .782-1.852 1.655 1.655 0 0 0-.289-1.022 2.557 2.557 0 0 0-.818-.681 6.471 6.471 0 0 0-1.23-.5c-.481-.146-.967-.295-1.457-.45s-.989-.332-1.474-.527a4.747 4.747 0 0 1-1.35-.821 3.891 3.891 0 0 1-.962-1.295 4.482 4.482 0 0 1-.366-1.9 4.218 4.218 0 0 1 .366-1.744 4.658 4.658 0 0 1 1.07-1.487 5.242 5.242 0 0 1 1.715-1.045 6.455 6.455 0 0 1 2.33-.393 7.945 7.945 0 0 1 2.705.439 6.442 6.442 0 0 1 2.148 1.274l.152.137-.749 1.317a.9.9 0 0 1-.738.421 1.2 1.2 0 0 1-.644-.224c-.18-.117-.4-.258-.661-.406a4.58 4.58 0 0 0-.909-.387 4.222 4.222 0 0 0-1.277-.17 2.886 2.886 0 0 0-2.061.63 2.045 2.045 0 0 0-.644 1.538 1.43 1.43 0 0 0 .5 1.174 4.741 4.741 0 0 0 1.405.781c.582.215 1.219.421 1.892.612a9.544 9.544 0 0 1 1.963.8 4.88 4.88 0 0 1 1.561 1.342 3.654 3.654 0 0 1 .644 2.249 5.444 5.444 0 0 1-.4 2.084 4.767 4.767 0 0 1-1.176 1.69 5.41 5.41 0 0 1-1.872 1.107 7.372 7.372 0 0 1-2.47.385zm-5.006-2.373a7.074 7.074 0 0 0 2.1 1.313 7.546 7.546 0 0 0 2.9.551 6.89 6.89 0 0 0 2.306-.361 4.915 4.915 0 0 0 1.7-1 4.254 4.254 0 0 0 1.051-1.51 4.943 4.943 0 0 0 .361-1.89 3.166 3.166 0 0 0-.544-1.943 4.362 4.362 0 0 0-1.4-1.2 8.932 8.932 0 0 0-1.858-.754c-.687-.195-1.336-.4-1.932-.625a5.23 5.23 0 0 1-1.555-.867 1.93 1.93 0 0 1-.687-1.565 2.568 2.568 0 0 1 .8-1.907 3.355 3.355 0 0 1 2.418-.773 4.737 4.737 0 0 1 1.431.195 4.985 4.985 0 0 1 1.012.434c.271.158.492.295.682.419a.729.729 0 0 0 .367.14c.073 0 .184-.021.317-.2l.523-.921a5.969 5.969 0 0 0-1.825-1.04 7.454 7.454 0 0 0-2.533-.41 5.964 5.964 0 0 0-2.147.359 4.711 4.711 0 0 0-1.546.942 4.16 4.16 0 0 0-.953 1.324 3.7 3.7 0 0 0-.332 1.53 3.959 3.959 0 0 0 .318 1.685 3.372 3.372 0 0 0 .835 1.128 4.228 4.228 0 0 0 1.206.732c.471.189.955.363 1.435.515s.973.3 1.453.447a7.1 7.1 0 0 1 1.326.541 3.048 3.048 0 0 1 .979.821 2.146 2.146 0 0 1 .394 1.331 2.789 2.789 0 0 1-.964 2.242 3.812 3.812 0 0 1-2.556.8 5.088 5.088 0 0 1-1.719-.258 5.862 5.862 0 0 1-1.19-.571 9.605 9.605 0 0 1-.8-.558.762.762 0 0 0-.415-.189.377.377 0 0 0-.341.2z" transform="translate(-861.179 -347.159)" style="fill:#ed7203"/>
        <path data-name="Path 26" d="M378.878 290.144a5.364 5.364 0 0 1 2.461-4.059 2.349 2.349 0 0 1 2.705-.2 2.417 2.417 0 0 1 1.177 2.525 19.461 19.461 0 0 1-.876 2.85c-.072.227-.245.456-.228.672.142 1.748-1.624 2.694-3.232 2.024-1.24-.516-2.022-1.856-2.007-3.812z" transform="translate(-341.311 -285.523)" style="fill:#004b92"/>
        <path data-name="Path 27" d="M98.252 309.757a20.881 20.881 0 0 0 7.238-1.212l.258.594a15.427 15.427 0 0 0 3.607 5.45 10.121 10.121 0 0 0 2.636 1.778 2.824 2.824 0 0 0 1.166.265 2.3 2.3 0 0 0 2.2-1.637 5.747 5.747 0 0 0 .272-1.581 13.864 13.864 0 0 0-1.127-5.833q-3.4-8.456-6.968-16.856a13.883 13.883 0 0 0-2.061-3.451 4.787 4.787 0 0 0-3.7-1.734 4.963 4.963 0 0 0-3.666 1.626 10.2 10.2 0 0 0-1.646 2.368 205.663 205.663 0 0 0-8.273 19.4 17.368 17.368 0 0 0-.922 3.823 1.823 1.823 0 0 0 2.02 2.011 1.914 1.914 0 0 0 .241-.01 2.187 2.187 0 0 0 1.813-1.349c.608-1.189 1.134-2.411 1.664-3.63.113-.258.224-.386.5-.386a1.305 1.305 0 0 1 .175.014 32.319 32.319 0 0 0 4.571.352zm1.888-16.257 3.977 11.573a12.676 12.676 0 0 0-4.358-.7 33.8 33.8 0 0 0-4.616.407l4.997-11.28z" transform="translate(-87.255 -285.521)" style="fill:#004b92"/>
        <path data-name="Path 28" d="M305.328 306.875c-.021-1.53-.085-4.006-.151-6.277h-.019c-.106-3.736-.189-7.472-.332-11.207a10.37 10.37 0 0 0-.437-2.375 2.086 2.086 0 0 0-1.989-1.616 3.99 3.99 0 0 0-.309-.013 2.374 2.374 0 0 0-2.3 1.315 7.148 7.148 0 0 0-.688 2.212c-.375 3.313-.75 6.629-.973 9.953a55.391 55.391 0 0 0-.129 6.183q.424 1.047.837 2.08a14.81 14.81 0 0 1 1.192 5.774c.063.082.129.165.2.247a6.538 6.538 0 0 0 1.932 1.605 2.279 2.279 0 0 0 1.041.258 2.008 2.008 0 0 0 1.921-1.453 4.451 4.451 0 0 0 .242-1.363c-.007-1.768-.023-3.542-.038-5.323z" transform="translate(-270.822 -285.39)" style="fill:#004b92"/>
        <path data-name="Path 29" d="M371.94 391.1q.438-.386.84-.806a14.864 14.864 0 0 0 1.405-1.724 14.048 14.048 0 0 0 1.131-1.9l.009-.017a3.594 3.594 0 0 0 .486-2.114 1.105 1.105 0 0 0-.5-.765 1.077 1.077 0 0 0-.881-.014 9.04 9.04 0 0 0-2 1.086c-.654.426-1.311.9-2 1.328a18.18 18.18 0 0 1-.523.318 1.718 1.718 0 0 1-.759.289.947.947 0 0 1-.593-.16 1.057 1.057 0 0 1-.144-.129 1.212 1.212 0 0 1-.367-.6 5.41 5.41 0 0 1-.265-1.707c.055-1.447.249-2.889.3-4.336a21.578 21.578 0 0 0-.108-3.651 1.981 1.981 0 0 0-2.019-1.636 3.324 3.324 0 0 0-2.768 1.376 10.679 10.679 0 0 0-2.26 4.578 11.7 11.7 0 0 0 .62 8.358 6.436 6.436 0 0 0 7.756 3.526 9.3 9.3 0 0 0 2.64-1.3z" transform="translate(-325.251 -363.069)" style="fill:#004b92"/>
        <path data-name="Path 30" d="M467.274 378.1a1.3 1.3 0 0 0-1.506.173 16.444 16.444 0 0 0-1.123 1.232c-.667.748-1.288 1.546-2.01 2.235a7.562 7.562 0 0 1-3.539 2.071 1.636 1.636 0 0 1-2.079-1 12.415 12.415 0 0 1-.607-1.766 41.56 41.56 0 0 0-1.21-4.306c-1.28-3.155-4.21-3.888-6.8-1.7a23.555 23.555 0 0 0-2.758 3.078 23.073 23.073 0 0 0-1.3 1.932 13.145 13.145 0 0 0-.106-1.6 31.366 31.366 0 0 0-.882-3.955 2.667 2.667 0 0 0-4.889-.147 10.549 10.549 0 0 0-.367 1.086 33.585 33.585 0 0 0-.7 8.176c.536-.314 1.071-.644 1.617-.967.347-.2.7-.408 1.065-.6a5.982 5.982 0 0 1 1.181-.473 2.4 2.4 0 0 1 .692-.082 1.386 1.386 0 0 1 .732.238 1.725 1.725 0 0 1 .718 1.206 3.064 3.064 0 0 1-.147 1.3 5.377 5.377 0 0 1-.515 1.144l.009-.017a14.411 14.411 0 0 1-1.266 1.9 15.3 15.3 0 0 1-1.523 1.685 12.673 12.673 0 0 1-1.186 1 2.827 2.827 0 0 0 4.568.258 13.833 13.833 0 0 0 1.657-2.187c1.26-1.949 2.471-3.929 3.7-5.895.108-.171.231-.334.3-.433a40.334 40.334 0 0 0 1.563 3.791c2.089 3.916 6.129 5.193 10.011 3.147a15.667 15.667 0 0 0 7.133-8.142 3.756 3.756 0 0 0 .231-1.105 1.179 1.179 0 0 0-.664-1.277z" transform="translate(-392.27 -361.549)" style="fill:#004b92"/>
        <path data-name="Path 31" d="M440.16 390.489a2.6 2.6 0 0 1-.265-.013 2.868 2.868 0 0 1-2.136-1.337l-.066-.1.1-.072a12.535 12.535 0 0 0 1.175-.987 15.014 15.014 0 0 0 1.509-1.667 14.28 14.28 0 0 0 1.255-1.882 5.236 5.236 0 0 0 .5-1.1 2.882 2.882 0 0 0 .143-1.241 1.6 1.6 0 0 0-.663-1.117 1.255 1.255 0 0 0-.663-.215 2.247 2.247 0 0 0-.656.079 5.8 5.8 0 0 0-1.159.464 19.42 19.42 0 0 0-1.058.59l-.681.408a95.93 95.93 0 0 1-.935.559l-.184.108-.01-.214a33.483 33.483 0 0 1 .706-8.214 10.32 10.32 0 0 1 .371-1.1 2.8 2.8 0 0 1 5.131.155 23.367 23.367 0 0 1 .732 3.142c.05.277.1.554.156.828a6.4 6.4 0 0 1 .084 1.031v.188l.218-.345a11.634 11.634 0 0 1 .871-1.262l.527-.644a17.9 17.9 0 0 1 2.247-2.448 4.527 4.527 0 0 1 3.993-1.184 4.592 4.592 0 0 1 3.008 2.933 19.981 19.981 0 0 1 .833 2.834c.118.49.241 1 .386 1.484a12.038 12.038 0 0 0 .607 1.749 1.5 1.5 0 0 0 1.932.933 7.345 7.345 0 0 0 3.478-2.039 19.049 19.049 0 0 0 1.378-1.507c.2-.237.412-.483.623-.72.1-.117.209-.238.312-.359a10.34 10.34 0 0 1 .819-.881 1.419 1.419 0 0 1 1.648-.195 1.311 1.311 0 0 1 .741 1.407 3.908 3.908 0 0 1-.241 1.143 15.683 15.683 0 0 1-7.184 8.2c-3.956 2.087-8.049.8-10.183-3.2a21.524 21.524 0 0 1-1.1-2.576c-.129-.33-.25-.669-.386-1a4.136 4.136 0 0 0-.158.234q-.568.9-1.131 1.811c-.836 1.344-1.7 2.734-2.576 4.085a14.031 14.031 0 0 1-1.675 2.2 3.353 3.353 0 0 1-2.373 1.054zm-2.118-1.391a2.592 2.592 0 0 0 1.877 1.122 3.025 3.025 0 0 0 2.423-.983 13.882 13.882 0 0 0 1.642-2.156c.872-1.351 1.736-2.739 2.576-4.081q.564-.908 1.13-1.813c.08-.129.166-.246.234-.341l.068-.1.137-.2.089.22c.166.41.322.826.473 1.229a21.064 21.064 0 0 0 1.083 2.551c2.061 3.865 6.016 5.108 9.837 3.092a15.445 15.445 0 0 0 7.075-8.077 3.674 3.674 0 0 0 .222-1.067 1.06 1.06 0 0 0-.594-1.148 1.176 1.176 0 0 0-1.364.149 10.08 10.08 0 0 0-.8.859c-.1.122-.209.245-.316.363-.21.236-.417.479-.618.716a19.486 19.486 0 0 1-1.4 1.527 7.669 7.669 0 0 1-3.6 2.1 1.769 1.769 0 0 1-2.216-1.065 12.39 12.39 0 0 1-.618-1.778c-.14-.495-.258-1-.386-1.494a19.8 19.8 0 0 0-.823-2.8 4.316 4.316 0 0 0-2.834-2.78 4.266 4.266 0 0 0-3.768 1.131 17.582 17.582 0 0 0-2.213 2.412q-.258.327-.528.644a11.6 11.6 0 0 0-.85 1.235c-.139.22-.282.448-.439.687l-.214.322-.023-.386a19.4 19.4 0 0 1-.023-.6 6.243 6.243 0 0 0-.08-.989q-.08-.413-.156-.83a22.936 22.936 0 0 0-.723-3.108 2.539 2.539 0 0 0-4.648-.138 10.054 10.054 0 0 0-.361 1.072 33.249 33.249 0 0 0-.706 7.921c.249-.147.5-.3.748-.448l.683-.41c.317-.187.687-.4 1.073-.6a6.146 6.146 0 0 1 1.206-.483 2.537 2.537 0 0 1 .73-.086 1.509 1.509 0 0 1 .8.258 1.852 1.852 0 0 1 .773 1.3 3.118 3.118 0 0 1-.144 1.353 5.5 5.5 0 0 1-.529 1.171 14.442 14.442 0 0 1-1.266 1.9 15.173 15.173 0 0 1-1.534 1.7 12.98 12.98 0 0 1-1.105.929z" transform="translate(-391.361 -360.687)" style="fill:#fff"/>
        <path data-name="Path 32" d="M467.274 378.1a1.3 1.3 0 0 0-1.506.173 16.444 16.444 0 0 0-1.123 1.232c-.667.748-1.288 1.546-2.01 2.235a7.562 7.562 0 0 1-3.539 2.071 1.636 1.636 0 0 1-2.079-1 12.415 12.415 0 0 1-.607-1.766 41.56 41.56 0 0 0-1.21-4.306c-1.28-3.155-4.21-3.888-6.8-1.7a23.555 23.555 0 0 0-2.758 3.078 23.073 23.073 0 0 0-1.3 1.932 13.145 13.145 0 0 0-.106-1.6 31.366 31.366 0 0 0-.882-3.955 2.667 2.667 0 0 0-4.889-.147 10.549 10.549 0 0 0-.367 1.086 33.585 33.585 0 0 0-.7 8.176c.536-.314 1.071-.644 1.617-.967.347-.2.7-.408 1.065-.6a5.982 5.982 0 0 1 1.181-.473 2.4 2.4 0 0 1 .692-.082 1.386 1.386 0 0 1 .732.238 1.725 1.725 0 0 1 .718 1.206 3.064 3.064 0 0 1-.147 1.3 5.377 5.377 0 0 1-.515 1.144l.009-.017a14.411 14.411 0 0 1-1.266 1.9 15.3 15.3 0 0 1-1.523 1.685 12.673 12.673 0 0 1-1.186 1 2.827 2.827 0 0 0 4.568.258 13.833 13.833 0 0 0 1.657-2.187c1.26-1.949 2.471-3.929 3.7-5.895.108-.171.231-.334.3-.433a40.334 40.334 0 0 0 1.563 3.791c2.089 3.916 6.129 5.193 10.011 3.147a15.667 15.667 0 0 0 7.133-8.142 3.756 3.756 0 0 0 .231-1.105 1.179 1.179 0 0 0-.664-1.277z" transform="translate(-392.27 -361.549)" style="fill:#004b92"/>
        <path data-name="Path 33" d="M613.317 492.686c-.728-.191-1.438-.424-2.166-.6s-1.44-.386-2.169-.546l-1.087-.258-1.092-.232c-.725-.164-1.457-.3-2.19-.438a118.85 118.85 0 0 0-8.8-1.315 162.586 162.586 0 0 0-35.479 0c-2.945.332-5.881.763-8.8 1.314-.729.138-1.461.274-2.19.438l-1.087.24-1.087.258c-.729.16-1.447.357-2.171.546s-1.436.408-2.165.6q.506-.247 1.016-.486c.34-.161.68-.322 1.031-.466.692-.291 1.385-.587 2.091-.848.352-.129.7-.272 1.058-.4l1.069-.365c.711-.258 1.434-.462 2.154-.684a78.945 78.945 0 0 1 8.81-2.061 107.452 107.452 0 0 1 36.035 0 79.167 79.167 0 0 1 8.809 2.061c.721.222 1.444.433 2.155.684l1.069.365c.354.129.706.267 1.058.4.7.258 1.4.557 2.091.848.346.144.688.305 1.031.466s.666.314 1.006.479z" transform="translate(-484.142 -460.035)" style="fill:#ed7203"/>
        <path data-name="Path 34" d="M804 365.5a9.148 9.148 0 0 1 1.462-5.51 4.5 4.5 0 0 1 3.775-1.99 4.371 4.371 0 0 1 2.73.935 5.811 5.811 0 0 1 1.854 2.609 10.6 10.6 0 0 1 .644 3.794 10.408 10.408 0 0 1-.675 3.85 5.545 5.545 0 0 1-1.9 2.569 4.494 4.494 0 0 1-2.655.873 4.322 4.322 0 0 1-2.759-.965 5.94 5.94 0 0 1-1.842-2.632A9.955 9.955 0 0 1 804 365.5zm1.492.03a6.755 6.755 0 0 0 1.063 4.026 3.166 3.166 0 0 0 5.355-.014 7.2 7.2 0 0 0 1.055-4.214 9.127 9.127 0 0 0-.451-3.013 4.368 4.368 0 0 0-1.32-2 3.012 3.012 0 0 0-1.95-.708 3.31 3.31 0 0 0-2.643 1.364q-1.107 1.364-1.105 4.556z" transform="translate(-711.667 -348.646)" style="fill:#ed7203"/>
        <path data-name="Path 34 - Outline" d="M806.124 370.168a4.945 4.945 0 0 1-3.106-1.1 6.561 6.561 0 0 1-2.029-2.89 10.53 10.53 0 0 1-.67-3.747 9.768 9.768 0 0 1 1.58-5.868 5.094 5.094 0 0 1 4.266-2.243 5.021 5.021 0 0 1 3.106 1.066 6.432 6.432 0 0 1 2.046 2.87 11.177 11.177 0 0 1 .684 4.02 10.937 10.937 0 0 1-.715 4.058 6.174 6.174 0 0 1-2.12 2.85 5.061 5.061 0 0 1-3.006.986zm.07-14.63a3.9 3.9 0 0 0-3.312 1.746 8.611 8.611 0 0 0-1.344 5.149 9.32 9.32 0 0 0 .593 3.316 5.368 5.368 0 0 0 1.651 2.368 3.728 3.728 0 0 0 2.343.833v.609l.032-.609a3.862 3.862 0 0 0 2.3-.755 4.981 4.981 0 0 0 1.7-2.3 9.747 9.747 0 0 0 .632-3.617 9.983 9.983 0 0 0-.607-3.594 5.231 5.231 0 0 0-1.653-2.335 3.783 3.783 0 0 0-2.335-.812zm-.044 13.029a3.773 3.773 0 0 1-3.16-1.722 7.368 7.368 0 0 1-1.178-4.382c0-2.294.409-3.91 1.244-4.939a3.906 3.906 0 0 1 3.116-1.59 3.632 3.632 0 0 1 2.343.852 4.979 4.979 0 0 1 1.5 2.261 9.731 9.731 0 0 1 .485 3.226 7.794 7.794 0 0 1-1.168 4.555 3.772 3.772 0 0 1-3.183 1.739zm.032-11.416a2.714 2.714 0 0 0-2.18 1.139 6.8 6.8 0 0 0-.969 4.173 6.205 6.205 0 0 0 .948 3.669 2.559 2.559 0 0 0 4.365-.01 6.659 6.659 0 0 0 .942-3.861 8.519 8.519 0 0 0-.421-2.824 3.779 3.779 0 0 0-1.127-1.714 2.413 2.413 0 0 0-1.559-.573z" transform="translate(-708.596 -345.575)" style="fill:#ed7203"/>
        <path data-name="Path 35" d="M898.49 373.258V358.7h4.8a10.152 10.152 0 0 1 1.932.139 3.544 3.544 0 0 1 1.578.679 3.5 3.5 0 0 1 1.02 1.4 5 5 0 0 1 .386 1.986 4.866 4.866 0 0 1-1.031 3.143q-1.031 1.286-3.736 1.288h-3.267v5.926zm1.684-7.637h3.29a3.183 3.183 0 0 0 2.319-.7 2.655 2.655 0 0 0 .685-1.957 2.911 2.911 0 0 0-.4-1.564 1.911 1.911 0 0 0-1.063-.858 6.338 6.338 0 0 0-1.572-.129h-3.257z" transform="translate(-793.985 -349.254)" style="fill:#ed7203"/>
        <path data-name="Path 35 - Outline" d="m897.849 370.945-2.834-.015v-15.7h5.615a10.76 10.76 0 0 1 1.788.15 3.834 3.834 0 0 1 3.037 2.438 5.531 5.531 0 0 1 .427 2.205 5.441 5.441 0 0 1-1.157 3.5c-.8 1-2.206 1.5-4.184 1.5h-2.693zm-1.684-1.159h.534v-5.923h3.842c1.612 0 2.718-.363 3.287-1.073a4.271 4.271 0 0 0 .9-2.784 4.413 4.413 0 0 0-.342-1.765 2.686 2.686 0 0 0-2.16-1.737 9.616 9.616 0 0 0-1.6-.135h-4.466zm4.4-6.49H896.7v-6.353h3.831a6.608 6.608 0 0 1 1.738.153 2.489 2.489 0 0 1 1.394 1.12 3.477 3.477 0 0 1 .481 1.869 3.2 3.2 0 0 1-.851 2.344 3.674 3.674 0 0 1-2.729.871zm-2.715-1.15h2.715a2.688 2.688 0 0 0 1.91-.525 2.093 2.093 0 0 0 .519-1.551 2.351 2.351 0 0 0-.323-1.273 1.336 1.336 0 0 0-.745-.6 5.711 5.711 0 0 0-1.394-.1h-2.682z" transform="translate(-791.085 -346.354)" style="fill:#ed7203"/>
        <path data-name="Path 36" d="M719.52 368.179v-14.556h1.58v5.972h6.209v-5.975h1.581v14.557h-1.581v-6.86H721.1v6.862z" transform="translate(-638.071 -344.83)" style="fill:#ed7203"/>
        <path data-name="Path 37" d="M726.008 365.329h-2.576v-6.862h-5.215v6.862h-2.577V349.78h2.576v5.979h5.22v-5.979h2.576zm-1.581-.991h.59v-13.567h-.59v5.979h-7.195v-5.979h-.59v13.567h.59v-6.862h7.2z" transform="translate(-634.69 -341.485)" style="fill:#ed7203"/>
    </g>
</svg>
